<svg width="60" height="60" viewBox="0 0 60 60" fill="none" xmlns="http://www.w3.org/2000/svg">
<g clip-path="url(#clip0_318:16)">
<circle cx="30" cy="30" r="30" fill="white"/>
<path d="M29.6222 59.7893C32.1952 59.7893 34.2239 59.1213 35.7084 57.7853C37.1928 56.4988 37.935 54.5938 37.935 52.0702C37.935 51.7733 37.935 51.4764 37.935 51.1796C37.8856 50.8827 37.8361 50.6353 37.7866 50.4373C38.5783 51.5259 39.5432 52.4166 40.6813 53.1093C41.8193 53.8021 42.9822 54.1484 44.1697 54.1484C45.5552 54.1484 46.9407 53.7031 48.3262 52.8124C49.6622 51.9218 50.8002 50.8084 51.7404 49.4724C52.631 48.087 53.0764 46.6767 53.0764 45.2418C53.0764 44.0542 52.7548 42.8914 52.1115 41.7533C51.4188 40.6153 50.5033 39.6504 49.3653 38.8587C49.5632 38.9081 49.8106 38.9576 50.1075 39.0071C50.4044 39.0071 50.7013 39.0071 50.9982 39.0071C53.5217 39.0071 55.4515 38.2649 56.7875 36.7804C58.074 35.296 58.7173 33.2673 58.7173 30.6942C58.7173 28.8139 58.3462 27.2553 57.6039 26.0182C56.8122 24.7812 55.8226 23.8658 54.635 23.272C53.4475 22.6287 52.2352 22.3566 50.9982 22.4556L49.8106 22.5298H49.3653C50.5033 21.6886 51.4188 20.699 52.1115 19.5609C52.7548 18.4228 53.0764 17.26 53.0764 16.0724C53.0764 14.489 52.6805 13.0541 51.8888 11.7676C51.0971 10.481 50.0333 9.44192 48.6973 8.65022C47.3118 7.85852 45.8026 7.46266 44.1697 7.46266C43.0316 7.46266 41.8936 7.78429 40.7555 8.42755C39.5679 9.07081 38.5783 9.912 37.7866 10.9511C37.8361 10.7037 37.8856 10.4563 37.935 10.2089C37.935 9.912 37.935 9.61511 37.935 9.31822C37.935 6.79466 37.1928 4.88963 35.7084 3.60311C34.2239 2.26711 32.1952 1.59911 29.6222 1.59911C26.9996 1.59911 24.9709 2.26711 23.5359 3.60311C22.0515 4.88963 21.3093 6.79466 21.3093 9.31822C21.3093 9.61511 21.334 9.912 21.3835 10.2089C21.3835 10.4563 21.4082 10.7037 21.4577 10.9511C19.5279 8.62548 17.4002 7.46266 15.0746 7.46266C13.4417 7.46266 11.9573 7.85852 10.6213 8.65022C9.28527 9.44192 8.22142 10.481 7.42971 11.7676C6.58853 13.0541 6.16793 14.489 6.16793 16.0724C6.16793 18.4476 7.40497 20.6 9.87905 22.5298C9.63164 22.4803 9.38423 22.4556 9.13683 22.4556C8.83994 22.4061 8.54305 22.3813 8.24616 22.3813C5.7226 22.3813 3.81757 23.1236 2.53105 24.608C1.19505 26.043 0.527048 28.0717 0.527048 30.6942C0.527048 33.2673 1.19505 35.296 2.53105 36.7804C3.81757 38.2649 5.7226 39.0071 8.24616 39.0071C8.54305 39.0071 8.83994 39.0071 9.13683 39.0071C9.38423 38.9576 9.63164 38.9081 9.87905 38.8587C8.74097 39.6999 7.85031 40.6895 7.20705 41.8276C6.51431 42.9656 6.16793 44.1037 6.16793 45.2418C6.16793 46.6767 6.63801 48.087 7.57816 49.4724C8.46882 50.8084 9.6069 51.9218 10.9924 52.8124C12.3284 53.7031 13.6891 54.1484 15.0746 54.1484C16.2622 54.1484 17.425 53.8268 18.563 53.1836C19.6516 52.4908 20.6165 51.5754 21.4577 50.4373C21.4082 50.6353 21.3835 50.8827 21.3835 51.1796C21.334 51.4764 21.3093 51.7733 21.3093 52.0702C21.3093 54.5938 22.0515 56.4988 23.5359 57.7853C24.9709 59.1213 26.9996 59.7893 29.6222 59.7893ZM32.591 21.6391L31.5519 21.3422L32.591 17.1858C33.2838 14.7117 33.6302 12.7819 33.6302 11.3964C33.6302 9.96148 33.259 8.79866 32.5168 7.908C31.7251 6.96785 30.7602 6.49777 29.6222 6.49777C28.4841 6.49777 27.5439 6.96785 26.8017 7.908C26.01 8.79866 25.6142 9.96148 25.6142 11.3964C25.6142 12.485 25.7873 13.7716 26.1337 15.256C26.4306 16.7404 26.7522 18.0764 27.0986 19.264C27.445 20.4516 27.6429 21.1443 27.6924 21.3422L26.6533 21.6391L24.7235 17.0373C24.2782 15.9982 23.907 14.8107 23.6102 13.4747C23.2638 12.0892 23.0906 11.0006 23.0906 10.2089C23.0906 8.18015 23.6844 6.572 24.8719 5.38444C26.01 4.14741 27.5934 3.52889 29.6222 3.52889C31.6509 3.52889 33.259 4.12267 34.4466 5.31022C35.5847 6.49778 36.1537 8.13066 36.1537 10.2089C36.1537 11.0006 36.0053 12.0644 35.7084 13.4004C35.362 14.7364 34.9662 15.9487 34.5208 17.0373L32.591 21.6391ZM21.1608 26.3893L16.4106 24.608C14.2334 23.7668 12.3284 22.5793 10.6955 21.0453C9.06261 19.5114 8.24616 17.829 8.24616 15.9982C8.24616 14.1674 8.91416 12.6335 10.2502 11.3964C11.5862 10.1099 13.0953 9.46667 14.7777 9.46667C18.2414 9.46667 21.1113 12.1881 23.3875 17.6311L25.3173 22.2329L24.2782 22.6782L22.1999 18.9671C21.8041 18.1754 21.2598 17.2847 20.5671 16.2951C19.8248 15.3055 18.9836 14.4396 18.0435 13.6973C17.1033 12.9551 16.1385 12.584 15.1488 12.584C14.1097 12.584 13.2438 12.9304 12.551 13.6231C11.8583 14.3159 11.5119 15.1818 11.5119 16.2209C11.5119 17.2105 11.9078 18.2001 12.6995 19.1898C13.4912 20.1299 14.4561 21.0206 15.5942 21.8618C16.7322 22.6535 17.8703 23.371 19.0084 24.0142C20.097 24.608 20.9629 25.1028 21.6062 25.4987L21.1608 26.3893ZM38.2319 26.3893L37.6382 25.4987L41.3493 23.272C43.6749 21.837 45.3573 20.6247 46.3964 19.6351C47.386 18.596 47.8808 17.4579 47.8808 16.2209C47.8808 15.1323 47.5345 14.2664 46.8417 13.6231C46.149 12.9798 45.283 12.6335 44.2439 12.584C43.1059 12.584 42.0668 12.9551 41.1266 13.6973C40.1865 14.4396 39.37 15.3055 38.6773 16.2951C37.9845 17.2847 37.4402 18.1754 37.0444 18.9671L34.9662 22.6782L34.0755 22.2329L35.8568 17.6311C36.3516 16.3446 37.0444 15.0828 37.935 13.8458C38.7762 12.5593 39.7659 11.5201 40.9039 10.7284C41.9925 9.88726 43.1801 9.46667 44.4666 9.46667C46.149 9.46667 47.6582 10.1099 48.9942 11.3964C50.3302 12.683 50.9982 14.2169 50.9982 15.9982C50.9982 17.2353 50.6023 18.4228 49.8106 19.5609C49.0189 20.6495 48.0045 21.6391 46.7675 22.5298C45.481 23.371 44.1697 24.0637 42.8337 24.608L38.2319 26.3893ZM29.6222 38.2649C27.4945 38.2649 25.7131 37.5474 24.2782 36.1124C22.7937 34.628 22.0515 32.8219 22.0515 30.6942C22.0515 28.5665 22.7937 26.7852 24.2782 25.3502C25.7131 23.8658 27.4945 23.1236 29.6222 23.1236C31.7499 23.1236 33.5559 23.8658 35.0404 25.3502C36.4753 26.7852 37.1928 28.5665 37.1928 30.6942C37.1928 32.8219 36.4753 34.628 35.0404 36.1124C33.5559 37.5474 31.7499 38.2649 29.6222 38.2649ZM9.13683 37.3742C7.0586 37.3742 5.42571 36.7804 4.23816 35.5929C3.0506 34.4053 2.45683 32.8219 2.45683 30.8427C2.45683 28.8139 3.07535 27.2305 4.31238 26.0924C5.49994 24.9049 7.10808 24.3111 9.13683 24.3111C9.97801 24.3111 11.0913 24.4843 12.4768 24.8307C13.8623 25.1276 15.0746 25.4987 16.1137 25.944L20.7155 27.8738L20.4186 28.9129L15.1488 27.5769C14.1592 27.3295 13.2685 27.1563 12.4768 27.0573C11.6851 26.9089 10.9676 26.8347 10.3244 26.8347C8.9389 26.8347 7.77609 27.2305 6.83593 28.0222C5.89579 28.7644 5.42571 29.7046 5.42571 30.8427C5.42571 32.0302 5.89579 32.9951 6.83593 33.7373C7.77609 34.4796 8.9389 34.8507 10.3244 34.8507C11.413 34.8507 12.6995 34.7022 14.1839 34.4053C15.6684 34.059 17.0044 33.7126 18.1919 33.3662C19.3795 33.0199 20.1217 32.8219 20.4186 32.7724L20.7155 33.8116L16.1137 35.7413C15.0746 36.1867 13.8623 36.5825 12.4768 36.9289C11.0913 37.2258 9.97801 37.3742 9.13683 37.3742ZM50.1075 37.3742C49.2663 37.3742 48.2025 37.2258 46.9159 36.9289C45.5799 36.5825 44.3676 36.1867 43.279 35.7413L38.6773 33.8116L38.9742 32.7724L43.1306 33.96C44.2192 34.3064 45.2583 34.5538 46.2479 34.7022C47.1881 34.8012 48.0788 34.8507 48.9199 34.8507C50.3054 34.8507 51.4682 34.4796 52.4084 33.7373C53.3485 32.9456 53.8186 31.9807 53.8186 30.8427C53.8186 29.7046 53.3485 28.7644 52.4084 28.0222C51.4682 27.2305 50.3054 26.8347 48.9199 26.8347C47.5839 26.8347 46.0005 27.0821 44.1697 27.5769L38.9742 28.9129L38.6773 27.8738L43.279 25.944C44.3182 25.4987 45.5057 25.1276 46.8417 24.8307C48.1777 24.4843 49.2663 24.3111 50.1075 24.3111C52.0868 24.3111 53.6949 24.9049 54.9319 26.0924C56.169 27.2305 56.7875 28.8139 56.7875 30.8427C56.7875 32.8714 56.1937 34.4796 55.0062 35.6671C53.8186 36.8052 52.1857 37.3742 50.1075 37.3742ZM44.3182 52.0702C42.7842 52.0702 41.3245 51.5012 39.939 50.3631C38.5536 49.225 37.1928 47.0726 35.8568 43.9058L33.927 39.304L34.8177 38.7102L37.0444 42.5698C37.4402 43.3615 38.0093 44.2521 38.7515 45.2418C39.4442 46.2314 40.2607 47.0973 41.2008 47.8396C42.0915 48.5818 43.0564 48.9529 44.0955 48.9529C45.1841 48.9529 46.0748 48.6065 46.7675 47.9138C47.4108 47.221 47.7324 46.3551 47.7324 45.316C47.7324 44.3264 47.3365 43.3615 46.5448 42.4213C45.7531 41.4317 44.7882 40.541 43.6502 39.7493C42.4626 38.9081 41.3245 38.1659 40.2359 37.5227C39.0979 36.8794 38.2319 36.3846 37.6382 36.0382L38.0835 35.1476L42.6853 36.9289C45.0604 37.869 47.0396 39.0813 48.623 40.5658C50.157 42.0502 50.9239 43.6584 50.9239 45.3902C50.9239 46.4293 50.6023 47.4684 49.959 48.5076C49.2663 49.5467 48.4251 50.4126 47.4355 51.1053C46.3964 51.7486 45.3573 52.0702 44.3182 52.0702ZM14.9262 52.0702C13.887 52.0702 12.8727 51.7486 11.883 51.1053C10.8439 50.4126 10.0028 49.5714 9.35949 48.5818C8.71623 47.5921 8.3946 46.5778 8.3946 45.5387C8.3946 43.7079 9.18631 42.0502 10.7697 40.5658C12.3036 39.0319 14.2334 37.8196 16.559 36.9289L21.1608 35.1476L21.7546 36.0382L18.0435 38.2649C16.757 39.0071 15.6684 39.6999 14.7777 40.3431C13.8376 40.9369 13.1696 41.5059 12.7737 42.0502C11.9325 43.1388 11.5119 44.2274 11.5119 45.316C11.5119 46.3551 11.8583 47.221 12.551 47.9138C13.2438 48.6065 14.1097 48.9529 15.1488 48.9529C16.2374 48.9529 17.2518 48.5818 18.1919 47.8396C19.1321 47.0973 19.9485 46.2314 20.6413 45.2418C21.334 44.2027 21.903 43.312 22.3484 42.5698L24.4266 38.7102L25.3173 39.304L23.5359 43.9058C22.6948 46.0335 21.5072 47.9385 19.9733 49.6209C18.4393 51.2538 16.757 52.0702 14.9262 52.0702ZM29.6222 57.8596C27.5934 57.8596 26.01 57.241 24.8719 56.004C23.6844 54.8164 23.0906 53.2083 23.0906 51.1796C23.0906 50.3384 23.2638 49.2745 23.6102 47.988C23.907 46.652 24.2782 45.4397 24.7235 44.3511L26.6533 39.7493L27.6924 40.0462L26.5048 44.2027C26.1585 45.2913 25.9358 46.3304 25.8368 47.32C25.6884 48.2601 25.6142 49.1508 25.6142 49.992C25.6142 51.3775 26.01 52.5403 26.8017 53.4804C27.5439 54.4206 28.4841 54.8907 29.6222 54.8907C30.8097 54.8907 31.7746 54.4206 32.5168 53.4804C33.259 52.5403 33.6302 51.3775 33.6302 49.992C33.6302 48.656 33.3828 47.0726 32.8879 45.2418L31.5519 40.0462L32.591 39.7493L34.5208 44.3511C34.9662 45.3902 35.362 46.5778 35.7084 47.9138C36.0053 49.2498 36.1537 50.3384 36.1537 51.1796C36.1537 53.2578 35.5599 54.8907 34.3724 56.0782C33.1848 57.2658 31.6014 57.8596 29.6222 57.8596Z" fill="#CEAAEA"/>
</g>
<defs>
<clipPath id="clip0_318:16">
<rect width="60" height="60" fill="white"/>
</clipPath>
</defs>
</svg>
